<?xml version="1.0" encoding="UTF-8" standalone="no"?>
<svg
   xmlns:dc="http://purl.org/dc/elements/1.1/"
   xmlns:cc="http://creativecommons.org/ns#"
   xmlns:rdf="http://www.w3.org/1999/02/22-rdf-syntax-ns#"
   xmlns:svg="http://www.w3.org/2000/svg"
   xmlns="http://www.w3.org/2000/svg"
   id="svg4918"
   version="1.1"
   viewBox="0 0 116.59588 44.731514"
   height="44.731514mm"
   width="116.59588mm">
  <defs
     id="defs4912" />
  <metadata
     id="metadata4915">
    <rdf:RDF>
      <cc:Work
         rdf:about="">
        <dc:format>image/svg+xml</dc:format>
        <dc:type
           rdf:resource="http://purl.org/dc/dcmitype/StillImage" />
        <dc:title></dc:title>
      </cc:Work>
    </rdf:RDF>
  </metadata>
  <g
     transform="translate(-266.00563,-253.46757)"
     id="layer1">
    <g
       id="g4928"
       transform="matrix(0.35277777,0,0,-0.35277777,266.00563,298.19909)">
      <g
         id="g4930"
         transform="scale(0.1)">
        <path
           d="M 1633.54,848.965 V 711.688 h -109.49 v 366.402 h 264.92 v -87.055 h -155.43 v -59.82 h 119.1 v -82.25 h -119.1"
           style="fill:#176fc1;fill-opacity:1;fill-rule:nonzero;stroke:none"
           id="path4932" />
        <path
           d="m 1912.3,893.289 c 0,-35.246 3.73,-103.09 55.02,-103.09 51.26,0 55,67.844 55,103.09 0,35.785 -5.34,107.361 -55,107.361 -49.69,0 -55.02,-71.576 -55.02,-107.361 z m 230.2,0.539 c 0,-104.156 -64.1,-187.484 -175.18,-187.484 -111.1,0 -175.2,83.328 -175.2,187.484 0,109.492 63.56,189.612 175.2,189.612 111.63,0 175.18,-80.12 175.18,-189.612"
           style="fill:#176fc1;fill-opacity:1;fill-rule:nonzero;stroke:none"
           id="path4934" />
        <path
           d="m 2329.93,930.141 c 24.56,0 53.94,3.746 53.94,35.257 0,12.286 -6.41,24.032 -17.62,29.903 -9.61,4.809 -21.37,4.809 -32.06,4.809 h -45.4 v -69.969 z m 47.53,-218.453 -53.41,139.941 h -35.26 V 711.688 h -113.78 v 366.402 h 186.43 c 32.04,0 67.3,-4.26 94.54,-22.42 30.44,-19.24 44.86,-51.81 44.86,-87.6 0,-48.07 -21.37,-76.91 -64.61,-96.679 l 66.22,-159.703 h -124.99"
           style="fill:#176fc1;fill-opacity:1;fill-rule:nonzero;stroke:none"
           id="path4936" />
        <path
           d="m 2944.11,711.688 h -104.7 v 261.73 h -1.07 l -66.76,-261.73 H 2700 l -68.9,261.73 h -1.07 v -261.73 h -84.39 v 366.402 h 146.89 l 52.34,-194.418 h 1.08 l 50.2,194.418 h 147.96 V 711.688"
           style="fill:#176fc1;fill-opacity:1;fill-rule:nonzero;stroke:none"
           id="path4938" />
        <path
           d="m 3080.75,836.68 c 9.61,-32.582 34.18,-44.34 66.75,-44.34 14.44,0 43.29,2.14 43.29,22.437 0,22.43 -28.31,26.696 -44.89,29.907 -68.88,13.359 -150.6,32.054 -150.6,119.113 0,35.789 17.62,71.033 46.99,91.873 29.91,20.82 68.91,27.77 105.21,27.77 63.57,0 125,-26.17 147.44,-89.725 l -92.93,-28.317 c -10.7,27.239 -31,36.852 -59.31,36.852 -14.95,0 -36.31,-4.266 -36.31,-23.5 0,-19.219 26.69,-22.965 40.6,-26.172 34.7,-6.949 71.57,-12.824 103.61,-29.375 35.79,-19.234 54.48,-53.418 54.48,-93.473 0,-88.128 -87.6,-123.386 -163.44,-123.386 -76.93,0 -145.29,32.054 -165.05,111.64 l 104.16,18.696"
           style="fill:#176fc1;fill-opacity:1;fill-rule:nonzero;stroke:none"
           id="path4940" />
        <path
           d="M 1756.92,243.461 H 1540.6 v 366.406 h 45.93 V 284.051 h 170.39 v -40.59"
           style="fill:#33bdf2;fill-opacity:1;fill-rule:nonzero;stroke:none"
           id="path4942" />
        <path
           d="m 1803.34,243.461 v 366.406 h 45.94 V 243.461 h -45.94"
           style="fill:#33bdf2;fill-opacity:1;fill-rule:nonzero;stroke:none"
           id="path4944" />
        <path
           d="m 2064.51,243.461 h -43.8 l -123.93,366.406 h 48.08 l 102.02,-302.308 101.47,302.308 h 40.07 L 2064.51,243.461"
           style="fill:#33bdf2;fill-opacity:1;fill-rule:nonzero;stroke:none"
           id="path4946" />
        <path
           d="m 2467.73,243.461 h -237.17 v 366.406 h 231.82 V 570.352 H 2276.49 V 453.91 h 147.43 V 417.051 H 2276.49 V 282.988 h 191.24 v -39.527"
           style="fill:#33bdf2;fill-opacity:1;fill-rule:nonzero;stroke:none"
           id="path4948" />
        <path
           d="m 715.523,1024.53 -391.164,-0.32 c -85.515,0 -85.515,-85.499 -85.515,-85.499 V 243.461 H 424.68 V 499.063 H 652.914 V 684.879 H 424.68 v 153.516 h 147.074 l -0.024,-0.04 h 143.793 v 186.175"
           style="fill:#33bdf2;fill-opacity:1;fill-rule:nonzero;stroke:none"
           id="path4950" />
        <path
           d="M 1283.44,572.121 V 1267.98 H 258.637 c -2.617,0 -64.758,-0.36 -126.989,-31.47 C 71.5977,1206.48 0,1142.7 0,1009.36 V 0 h 1024.8 c 89.46,0 258.64,54.0508 258.64,258.629 v 170.559 h -43 v 0.089 H 901.363 l -0.55,407.547 -185.27,187.706 V 328.965 c 0,0 0,-85.504 85.504,-85.504 h 393.383 c -3.63,-62.449 -29.63,-105.84 -79.78,-131.84 -43.7,-22.6718 -89.59,-23.3397 -89.85,-23.3593 H 88.2813 V 1009.36 c 0,70.83 26.3317,118.91 80.5117,147 43.133,22.36 88.379,23.32 90.008,23.34 H 1195.16 V 572.121 h 88.28"
           style="fill:#176fc1;fill-opacity:1;fill-rule:nonzero;stroke:none"
           id="path4952" />
      </g>
    </g>
  </g>
</svg>
